<mxfile host="Electron" modified="2023-11-19T12:10:20.484Z" agent="Mozilla/5.0 (X11; Linux x86_64) AppleWebKit/537.36 (KHTML, like Gecko) draw.io/22.1.2 Chrome/114.0.5735.289 Electron/25.9.4 Safari/537.36" etag="8g6WcGQ3HMYI1-qHplHS" version="22.1.2" type="device">
  <diagram name="Page-1" id="briIm781vtW46I6TjOci">
    <mxGraphModel dx="1001" dy="635" grid="1" gridSize="10" guides="1" tooltips="1" connect="1" arrows="1" fold="1" page="1" pageScale="1" pageWidth="1100" pageHeight="850" math="0" shadow="0">
      <root>
        <mxCell id="0" />
        <mxCell id="1" parent="0" />
        <mxCell id="cfvoRw8YOxAI8ECHDsBj-1" value="&lt;h1&gt;&lt;/h1&gt;&lt;h2 style=&quot;font-size: 18px;&quot; class=&quot;splunk2-h3&quot;&gt;&lt;div style=&quot;&quot;&gt;&lt;span style=&quot;background-color: initial; font-weight: normal;&quot;&gt;&lt;br&gt;Continuous Integration /&lt;/span&gt;&lt;/div&gt;&lt;div style=&quot;&quot;&gt;&lt;span style=&quot;background-color: initial; font-weight: normal;&quot;&gt;&amp;nbsp;Continuous Delivery&lt;/span&gt;&lt;/div&gt;&lt;/h2&gt;" style="ellipse;whiteSpace=wrap;html=1;aspect=fixed;strokeWidth=4;strokeColor=#3399FF;align=center;verticalAlign=top;" vertex="1" parent="1">
          <mxGeometry x="290" y="70" width="430" height="430" as="geometry" />
        </mxCell>
        <mxCell id="cfvoRw8YOxAI8ECHDsBj-2" value="Cloud Provider" style="ellipse;whiteSpace=wrap;html=1;aspect=fixed;fillColor=#ffe6cc;strokeColor=#d79b00;strokeWidth=3;shadow=0;" vertex="1" parent="1">
          <mxGeometry x="160" y="35" width="90" height="90" as="geometry" />
        </mxCell>
        <mxCell id="cfvoRw8YOxAI8ECHDsBj-3" value="Git Provider" style="ellipse;whiteSpace=wrap;html=1;aspect=fixed;fillColor=#ffe6cc;strokeColor=#d79b00;strokeWidth=3;" vertex="1" parent="1">
          <mxGeometry x="90" y="160" width="100" height="100" as="geometry" />
        </mxCell>
        <mxCell id="cfvoRw8YOxAI8ECHDsBj-4" value="" style="shape=flexArrow;endArrow=classic;startArrow=classic;html=1;rounded=0;entryX=0.94;entryY=0.789;entryDx=0;entryDy=0;entryPerimeter=0;exitX=0.077;exitY=0.227;exitDx=0;exitDy=0;exitPerimeter=0;" edge="1" parent="1" source="cfvoRw8YOxAI8ECHDsBj-1" target="cfvoRw8YOxAI8ECHDsBj-2">
          <mxGeometry width="100" height="100" relative="1" as="geometry">
            <mxPoint x="312.4871645748706" y="159.99993265982505" as="sourcePoint" />
            <mxPoint x="250" y="110" as="targetPoint" />
          </mxGeometry>
        </mxCell>
        <mxCell id="cfvoRw8YOxAI8ECHDsBj-5" value="" style="shape=flexArrow;endArrow=classic;startArrow=classic;html=1;rounded=0;entryX=0.986;entryY=0.612;entryDx=0;entryDy=0;entryPerimeter=0;exitX=0.008;exitY=0.407;exitDx=0;exitDy=0;exitPerimeter=0;" edge="1" parent="1" source="cfvoRw8YOxAI8ECHDsBj-1" target="cfvoRw8YOxAI8ECHDsBj-3">
          <mxGeometry width="100" height="100" relative="1" as="geometry">
            <mxPoint x="280" y="240" as="sourcePoint" />
            <mxPoint x="200" y="220" as="targetPoint" />
          </mxGeometry>
        </mxCell>
        <mxCell id="cfvoRw8YOxAI8ECHDsBj-6" value="&lt;font size=&quot;1&quot; style=&quot;&quot;&gt;&lt;b style=&quot;font-size: 26px;&quot;&gt;Systemgrenzen&lt;/b&gt;&lt;/font&gt;" style="text;html=1;strokeColor=none;fillColor=none;align=center;verticalAlign=middle;whiteSpace=wrap;rounded=0;" vertex="1" parent="1">
          <mxGeometry x="610" y="30" width="160" height="30" as="geometry" />
        </mxCell>
        <mxCell id="cfvoRw8YOxAI8ECHDsBj-7" value="" style="endArrow=none;html=1;rounded=0;entryX=0.5;entryY=1;entryDx=0;entryDy=0;exitX=0.819;exitY=0.11;exitDx=0;exitDy=0;exitPerimeter=0;strokeColor=#3399FF;strokeWidth=3;" edge="1" parent="1" source="cfvoRw8YOxAI8ECHDsBj-1" target="cfvoRw8YOxAI8ECHDsBj-6">
          <mxGeometry width="50" height="50" relative="1" as="geometry">
            <mxPoint x="490" y="270" as="sourcePoint" />
            <mxPoint x="540" y="220" as="targetPoint" />
          </mxGeometry>
        </mxCell>
        <mxCell id="cfvoRw8YOxAI8ECHDsBj-8" value="&lt;br&gt;" style="edgeLabel;html=1;align=center;verticalAlign=middle;resizable=0;points=[];" vertex="1" connectable="0" parent="cfvoRw8YOxAI8ECHDsBj-7">
          <mxGeometry x="-0.2295" y="-3" relative="1" as="geometry">
            <mxPoint as="offset" />
          </mxGeometry>
        </mxCell>
        <mxCell id="cfvoRw8YOxAI8ECHDsBj-10" value="Git Repo" style="ellipse;whiteSpace=wrap;html=1;aspect=fixed;fillColor=#ffe6cc;strokeColor=#d79b00;strokeWidth=3;" vertex="1" parent="1">
          <mxGeometry x="550" y="200" width="100" height="100" as="geometry" />
        </mxCell>
        <mxCell id="cfvoRw8YOxAI8ECHDsBj-11" value="FAAS Code" style="ellipse;whiteSpace=wrap;html=1;aspect=fixed;fillColor=#ffe6cc;strokeColor=#d79b00;strokeWidth=3;" vertex="1" parent="1">
          <mxGeometry x="340" y="200" width="100" height="100" as="geometry" />
        </mxCell>
        <mxCell id="cfvoRw8YOxAI8ECHDsBj-12" value="AWS Services" style="ellipse;whiteSpace=wrap;html=1;aspect=fixed;fillColor=#ffe6cc;strokeColor=#d79b00;strokeWidth=3;" vertex="1" parent="1">
          <mxGeometry x="450" y="360" width="100" height="100" as="geometry" />
        </mxCell>
        <mxCell id="cfvoRw8YOxAI8ECHDsBj-15" value="S 1" style="shape=flexArrow;endArrow=classic;startArrow=classic;html=1;rounded=0;entryX=0;entryY=0.5;entryDx=0;entryDy=0;exitX=1;exitY=0.5;exitDx=0;exitDy=0;verticalAlign=top;" edge="1" parent="1" source="cfvoRw8YOxAI8ECHDsBj-11" target="cfvoRw8YOxAI8ECHDsBj-10">
          <mxGeometry width="100" height="100" relative="1" as="geometry">
            <mxPoint x="460" y="220" as="sourcePoint" />
            <mxPoint x="560" y="120" as="targetPoint" />
          </mxGeometry>
        </mxCell>
        <mxCell id="cfvoRw8YOxAI8ECHDsBj-16" value="S 2" style="shape=flexArrow;endArrow=classic;startArrow=classic;html=1;rounded=0;verticalAlign=middle;" edge="1" parent="1" source="cfvoRw8YOxAI8ECHDsBj-12" target="cfvoRw8YOxAI8ECHDsBj-10">
          <mxGeometry x="-0.1627" y="-19" width="100" height="100" relative="1" as="geometry">
            <mxPoint x="460" y="220" as="sourcePoint" />
            <mxPoint x="560" y="120" as="targetPoint" />
            <mxPoint as="offset" />
          </mxGeometry>
        </mxCell>
      </root>
    </mxGraphModel>
  </diagram>
</mxfile>
